<?xml version="1.0" encoding="utf-8"?>
<!-- Generator: Adobe Illustrator 25.4.1, SVG Export Plug-In . SVG Version: 6.00 Build 0)  -->
<svg version="1.1" id="레이어_1" xmlns="http://www.w3.org/2000/svg" xmlns:xlink="http://www.w3.org/1999/xlink" x="0px"
	 y="0px" viewBox="0 0 208.37 192.77" style="enable-background:new 0 0 208.37 192.77;" xml:space="preserve">
<style type="text/css">
	.st0{fill:#131212;}
	.st1{fill:#5BB53C;}
	.st2{fill:#FFFFFF;}
</style>
<g>
	<path class="st0" d="M33.05,151.29c-0.1,0.59-0.2,0.99-0.4,1.13c-0.25,0.2-0.69,0.25-1.33,0.15c-0.69-0.05-1.48-0.15-2.42-0.25
		l-3.06-0.3c-1.09-0.05-2.12-0.1-3.11-0.2c-1.04-0.05-1.88-0.1-2.57-0.1c-2.37,0-4.1,0.35-5.13,1.04c-1.09,0.69-1.63,1.63-1.63,2.71
		c0,0.79,0.1,1.48,0.35,1.97c0.2,0.54,0.64,0.99,1.33,1.38c0.59,0.44,1.48,0.84,2.67,1.23c1.09,0.44,2.57,0.94,4.44,1.53
		c2.37,0.79,4.34,1.53,5.92,2.27c1.58,0.79,2.81,1.63,3.8,2.62c0.94,1.04,1.63,2.22,2.02,3.55c0.39,1.38,0.59,3.06,0.59,4.94
		c0,4.54-1.33,7.9-3.95,10.17c-2.67,2.17-6.56,3.31-11.6,3.31c-0.99,0-2.02-0.1-3.21-0.2l-3.55-0.44c-1.19-0.2-2.22-0.35-3.21-0.49
		l-2.22-0.44c-0.49-0.1-0.84-0.25-0.99-0.39c-0.2-0.2-0.25-0.54-0.15-1.04l0.69-5.72c0.05-0.35,0.15-0.59,0.3-0.74
		c0.1-0.1,0.4-0.15,0.89-0.1c0.54,0.1,1.28,0.15,2.22,0.25c0.89,0.1,1.87,0.2,2.96,0.3c1.04,0.1,2.12,0.2,3.26,0.25
		c1.09,0.1,2.07,0.15,2.96,0.15c2.37,0,4.05-0.35,5.08-1.09c0.99-0.69,1.48-1.88,1.48-3.55c0-0.64-0.1-1.23-0.3-1.78
		c-0.2-0.49-0.59-0.94-1.13-1.43c-0.59-0.39-1.33-0.84-2.32-1.28c-0.99-0.39-2.27-0.79-3.85-1.28c-2.47-0.69-4.59-1.43-6.27-2.22
		c-1.73-0.74-3.11-1.63-4.15-2.67c-1.09-0.99-1.88-2.12-2.37-3.5c-0.49-1.33-0.74-2.96-0.74-4.89c0-2.07,0.35-3.95,1.09-5.63
		c0.69-1.58,1.78-2.96,3.16-4.1c1.33-1.09,3.01-1.87,4.98-2.47c1.92-0.54,4.1-0.84,6.56-0.84c0.89,0,1.93,0.05,3.06,0.15
		c1.09,0.15,2.17,0.3,3.31,0.4c1.09,0.2,2.12,0.35,3.11,0.49c0.99,0.2,1.83,0.35,2.52,0.44c0.49,0.1,0.89,0.25,1.13,0.44
		c0.2,0.2,0.3,0.59,0.25,1.13L33.05,151.29z"/>
	<path class="st0" d="M46.77,173.01c0,1.28,0.15,2.37,0.49,3.21c0.3,0.89,0.74,1.53,1.33,2.02c0.59,0.54,1.33,0.89,2.22,1.09
		c0.89,0.25,1.87,0.35,3.06,0.35c2.27,0,4-0.44,5.23-1.43c1.19-0.89,1.83-2.67,1.83-5.23v-28.18c0-0.49,0.1-0.79,0.3-0.99
		c0.2-0.15,0.49-0.25,0.99-0.25h6.96c0.44,0,0.79,0.1,0.99,0.25c0.2,0.2,0.3,0.49,0.3,0.99v28.18c0,2.76-0.35,5.08-1.04,7.01
		c-0.74,1.93-1.78,3.5-3.16,4.79c-1.38,1.19-3.11,2.12-5.18,2.71c-2.07,0.54-4.49,0.84-7.21,0.84c-2.76,0-5.13-0.3-7.21-0.84
		c-2.07-0.59-3.8-1.53-5.18-2.71c-1.43-1.28-2.47-2.86-3.16-4.79c-0.74-1.93-1.09-4.25-1.09-7.01v-28.18c0-0.49,0.1-0.79,0.3-0.99
		c0.2-0.15,0.49-0.25,0.99-0.25h6.96c0.45,0,0.79,0.1,0.99,0.25c0.2,0.2,0.3,0.49,0.3,0.99V173.01z"/>
	<path class="st0" d="M81.17,187.86c-1.38,0-2.47-0.15-3.26-0.44c-0.79-0.3-1.38-0.74-1.78-1.23c-0.44-0.59-0.69-1.23-0.79-1.97
		c-0.15-0.79-0.2-1.68-0.2-2.57v-31.88c0-1.09,0.1-2.07,0.3-2.86c0.2-0.79,0.49-1.43,0.99-1.92c0.44-0.49,1.04-0.84,1.83-1.09
		c0.74-0.2,1.68-0.3,2.86-0.3h10.51c1.97,0,3.85,0.2,5.53,0.59c1.68,0.44,3.11,1.09,4.34,1.97c1.18,0.94,2.07,2.12,2.76,3.5
		c0.64,1.48,0.99,3.21,0.99,5.18c0,1.48-0.1,2.71-0.25,3.75c-0.2,1.09-0.49,1.97-0.79,2.76c-0.4,0.84-0.84,1.53-1.33,2.12
		c-0.59,0.64-1.23,1.23-1.92,1.73c0.99,0.44,1.83,0.94,2.57,1.48c0.69,0.59,1.23,1.28,1.73,2.07c0.44,0.84,0.79,1.78,1.04,2.81
		c0.2,1.09,0.3,2.37,0.3,3.8c0,2.17-0.35,4.05-0.99,5.63c-0.69,1.58-1.63,2.86-2.81,3.9c-1.28,0.99-2.76,1.73-4.49,2.22
		c-1.78,0.49-3.7,0.74-5.87,0.74H81.17z M84.13,151.34v10.56h6.91c1.73,0,3.01-0.49,3.8-1.48c0.74-0.99,1.14-2.32,1.14-4.1
		c0-3.31-1.68-4.98-5.03-4.98H84.13z M84.13,169.5v10.61h7.6c3.65,0,5.48-1.78,5.48-5.38c0-1.78-0.49-3.06-1.38-3.95
		c-0.99-0.84-2.32-1.28-4.1-1.28H84.13z"/>
	<path class="st1" d="M118.68,161.95h15.94c0.44,0,0.79,0.1,0.99,0.25c0.2,0.2,0.3,0.49,0.3,0.99v5.92c0,0.49-0.1,0.84-0.3,0.99
		c-0.2,0.2-0.54,0.25-0.99,0.25h-15.94V177c0,0.99,0.15,1.63,0.49,1.92c0.3,0.4,0.94,0.54,1.83,0.54h15.5c0.45,0,0.79,0.1,0.99,0.25
		c0.2,0.2,0.3,0.49,0.3,0.99v5.92c0,0.49-0.1,0.79-0.3,0.99c-0.2,0.15-0.54,0.25-0.99,0.25h-20.78c-1.38,0-2.47-0.15-3.26-0.44
		c-0.79-0.3-1.38-0.74-1.78-1.23c-0.44-0.59-0.69-1.23-0.79-1.97c-0.15-0.79-0.2-1.68-0.2-2.57v-31.83c0-0.89,0.05-1.78,0.2-2.57
		c0.1-0.74,0.35-1.38,0.79-1.97c0.39-0.49,0.99-0.94,1.78-1.23c0.79-0.3,1.88-0.44,3.26-0.44h20.78c0.45,0,0.79,0.1,0.99,0.25
		c0.2,0.2,0.3,0.49,0.3,0.99v5.92c0,0.49-0.1,0.84-0.3,0.99c-0.2,0.2-0.54,0.25-0.99,0.25H121c-0.89,0-1.53,0.2-1.83,0.49
		c-0.35,0.39-0.49,1.04-0.49,1.97V161.95z"/>
	<path class="st0" d="M164.82,145.07c0.2-0.39,0.44-0.74,0.84-1.04c0.3-0.3,0.79-0.44,1.48-0.44h6.37c0.49,0,0.89,0.15,1.13,0.35
		c0.2,0.3,0.15,0.74-0.15,1.33l-12.24,23.74v17.62c0,0.49-0.1,0.79-0.3,0.99c-0.2,0.15-0.54,0.25-0.99,0.25h-6.32
		c-0.49,0-0.79-0.1-0.99-0.25c-0.2-0.2-0.3-0.49-0.3-0.99v-17.67l-12.44-23.69c-0.35-0.59-0.39-1.04-0.15-1.33
		c0.2-0.2,0.59-0.35,1.13-0.35h6.37c0.64,0,1.13,0.15,1.53,0.44c0.3,0.3,0.59,0.64,0.79,1.04l7.16,13.97L164.82,145.07z"/>
	<path class="st0" d="M185.84,161.95h15.94c0.44,0,0.79,0.1,0.99,0.25c0.2,0.2,0.3,0.49,0.3,0.99v5.92c0,0.49-0.1,0.84-0.3,0.99
		c-0.2,0.2-0.54,0.25-0.99,0.25h-15.94V177c0,0.99,0.15,1.63,0.49,1.92c0.3,0.4,0.94,0.54,1.83,0.54h15.5c0.44,0,0.79,0.1,0.99,0.25
		c0.2,0.2,0.3,0.49,0.3,0.99v5.92c0,0.49-0.1,0.79-0.3,0.99c-0.2,0.15-0.54,0.25-0.99,0.25h-20.78c-1.38,0-2.47-0.15-3.26-0.44
		c-0.79-0.3-1.38-0.74-1.78-1.23c-0.44-0.59-0.69-1.23-0.79-1.97c-0.15-0.79-0.2-1.68-0.2-2.57v-31.83c0-0.89,0.05-1.78,0.2-2.57
		c0.1-0.74,0.35-1.38,0.79-1.97c0.4-0.49,0.99-0.94,1.78-1.23c0.79-0.3,1.88-0.44,3.26-0.44h20.78c0.44,0,0.79,0.1,0.99,0.25
		c0.2,0.2,0.3,0.49,0.3,0.99v5.92c0,0.49-0.1,0.84-0.3,0.99c-0.2,0.2-0.54,0.25-0.99,0.25h-15.5c-0.89,0-1.53,0.2-1.83,0.49
		c-0.35,0.39-0.49,1.04-0.49,1.97V161.95z"/>
</g>
<g>
	<g>
		<g>
			<path class="st0" d="M96.39,5.62c1.64-0.18,3.29-0.31,4.96-0.39c36.72-1.82,64.71,20.43,70.55,25.07
				c11.04,8.78,18.2,17.97,22.53,24.41c0,0,0,0,0,0c-52.5-19.34-85.59-20.32-109.03-15.99L96.39,5.62z"/>
		</g>
		<g>
			<path class="st0" d="M112.93,118.84c-1.64,0.18-3.29,0.31-4.96,0.39c-36.72,1.82-64.71-20.43-70.55-25.07
				c-11.04-8.78-18.2-17.97-22.53-24.41c0,0,0,0,0,0c52.5,19.34,85.59,20.32,109.03,15.99L112.93,118.84z"/>
		</g>
		<g>
			<circle class="st0" cx="104.82" cy="62.37" r="57.19"/>
		</g>
		<g>
			<circle class="st1" cx="104.1" cy="62.82" r="36.61"/>
		</g>
		<g>
			<circle class="st2" cx="104.1" cy="62.82" r="18.42"/>
		</g>
		<g>
			<path class="st0" d="M132.1,35.54c-2.6-2.6-5.48-4.74-8.54-6.45l-9.23,18.19c1.2,0.74,2.34,1.61,3.38,2.65
				c1.04,1.04,1.91,2.18,2.65,3.38l18.19-9.23C136.84,41.02,134.7,38.14,132.1,35.54z"/>
		</g>
	</g>
</g>
</svg>
